<svg width="501" height="254" viewBox="0 0 501 254" fill="none" xmlns="http://www.w3.org/2000/svg">
<path d="M111.953 184.588H0.188477V0.708008H26.533V161.436H85.6087V138.551L111.953 112.473V184.588Z" fill="#053F5C"/>
<path d="M235.381 161.436L212.496 184.588H163.266L140.381 161.436V69.6297L163.266 46.4784H212.496L235.381 69.6297V161.436ZM209.303 161.436V69.6297H166.726V161.436H209.303Z" fill="#053F5C"/>
<path d="M377.946 46.4784L355.06 69.6297H299.178V161.436H341.755V92.5148H368.1V230.624L345.215 253.509H269.64L292.259 230.624H341.755V164.364L315.411 184.588H295.985L272.834 161.436V69.6297L295.985 46.4784H377.946Z" fill="#053F5C"/>
<path d="M500.188 161.436L477.303 184.588H428.074L405.188 161.436V69.6297L428.074 46.4784H477.303L500.188 69.6297V161.436ZM474.11 161.436V69.6297H431.533V161.436H474.11Z" fill="#053F5C"/>
</svg>
