<?xml version="1.0" encoding="UTF-8"?>
<svg xmlns="http://www.w3.org/2000/svg" xmlns:xlink="http://www.w3.org/1999/xlink" viewBox="0 0 428.24 421.19">
  <defs>
    <style>
      .cls-1 {
        fill: url(#linear-gradient-2);
      }

      .cls-2 {
        fill: #fff;
      }

      .cls-3 {
        fill: url(#linear-gradient-17);
      }

      .cls-4 {
        fill: #a7b2d6;
      }

      .cls-5 {
        fill: url(#linear-gradient-15);
      }

      .cls-6 {
        fill: #212124;
      }

      .cls-7 {
        fill: url(#linear-gradient-18);
      }

      .cls-8 {
        fill: url(#linear-gradient-28);
      }

      .cls-9 {
        fill: url(#linear-gradient-14);
      }

      .cls-10 {
        fill: #bbc7f0;
      }

      .cls-11 {
        fill: url(#linear-gradient-20);
      }

      .cls-12 {
        fill: url(#linear-gradient-6);
      }

      .cls-13 {
        fill: #2e2f36;
      }

      .cls-14 {
        isolation: isolate;
      }

      .cls-15 {
        stroke: #4c4c52;
        stroke-miterlimit: 10;
        stroke-width: 3px;
      }

      .cls-15, .cls-16 {
        fill: none;
      }

      .cls-17, .cls-18 {
        fill: #9b9ebd;
      }

      .cls-19 {
        fill: url(#linear-gradient-11);
      }

      .cls-20 {
        fill: url(#linear-gradient-10);
      }

      .cls-21 {
        fill: #b2b4d1;
      }

      .cls-21, .cls-18, .cls-22 {
        fill-rule: evenodd;
      }

      .cls-23 {
        fill: url(#linear-gradient-16);
      }

      .cls-24 {
        fill: url(#linear-gradient-21);
      }

      .cls-25 {
        fill: #bfc3de;
      }

      .cls-26 {
        fill: url(#linear-gradient-25);
      }

      .cls-27 {
        fill: url(#linear-gradient-5);
      }

      .cls-28 {
        fill: #262730;
      }

      .cls-29 {
        fill: #d6daf8;
      }

      .cls-30 {
        fill: url(#linear-gradient-7);
      }

      .cls-31 {
        fill: #d9bfc1;
        mix-blend-mode: multiply;
      }

      .cls-32 {
        fill: url(#linear-gradient-24);
      }

      .cls-16 {
        stroke: url(#linear-gradient-9);
        stroke-linecap: round;
        stroke-linejoin: round;
        stroke-width: 8px;
      }

      .cls-33 {
        fill: url(#linear-gradient-22);
      }

      .cls-34 {
        fill: #525882;
      }

      .cls-35 {
        fill: #b51041;
      }

      .cls-36 {
        fill: url(#linear-gradient-3);
      }

      .cls-37 {
        fill: #5d5e69;
      }

      .cls-38 {
        fill: url(#linear-gradient);
      }

      .cls-39 {
        fill: url(#linear-gradient-27);
      }

      .cls-40 {
        fill: url(#linear-gradient-29);
      }

      .cls-41 {
        fill: url(#linear-gradient-23);
      }

      .cls-42 {
        fill: url(#linear-gradient-19);
      }

      .cls-43 {
        fill: #28282b;
      }

      .cls-44 {
        fill: url(#linear-gradient-4);
      }

      .cls-45 {
        fill: url(#linear-gradient-8);
      }

      .cls-22 {
        fill: #3a3c40;
      }

      .cls-46 {
        fill: url(#linear-gradient-12);
      }

      .cls-47 {
        fill: url(#linear-gradient-13);
      }

      .cls-48 {
        fill: url(#linear-gradient-26);
      }
    </style>
    <linearGradient id="linear-gradient" x1="1060.57" y1="70.39" x2="1073.82" y2="151.89" gradientTransform="translate(-1001.86)" gradientUnits="userSpaceOnUse">
      <stop offset="0" stop-color="#484952"/>
      <stop offset="1" stop-color="#303136"/>
    </linearGradient>
    <linearGradient id="linear-gradient-2" x1="1511.85" y1="303.66" x2="1503.94" y2="327.17" gradientTransform="translate(-1434.83 428.81) rotate(-26.41)" gradientUnits="userSpaceOnUse">
      <stop offset="0" stop-color="#fed905"/>
      <stop offset="1" stop-color="#fea305"/>
    </linearGradient>
    <linearGradient id="linear-gradient-3" x1="1528.26" y1="329.41" x2="1523.46" y2="343.67" xlink:href="#linear-gradient-2"/>
    <linearGradient id="linear-gradient-4" x1="1528.36" y1="357.43" x2="1526.06" y2="364.27" xlink:href="#linear-gradient-2"/>
    <linearGradient id="linear-gradient-5" x1="352.13" y1="158.25" x2="365.38" y2="239.75" gradientTransform="translate(706.11) rotate(-180) scale(1 -1)" xlink:href="#linear-gradient"/>
    <linearGradient id="linear-gradient-6" x1="838.31" y1="67.27" x2="830.4" y2="90.79" gradientTransform="translate(1139.08 428.81) rotate(-153.59) scale(1 -1)" xlink:href="#linear-gradient-2"/>
    <linearGradient id="linear-gradient-7" x1="854.72" y1="93.02" x2="849.92" y2="107.29" gradientTransform="translate(1139.08 428.81) rotate(-153.59) scale(1 -1)" xlink:href="#linear-gradient-2"/>
    <linearGradient id="linear-gradient-8" x1="854.82" y1="121.05" x2="852.52" y2="127.89" gradientTransform="translate(1139.08 428.81) rotate(-153.59) scale(1 -1)" xlink:href="#linear-gradient-2"/>
    <linearGradient id="linear-gradient-9" x1="1211.17" y1="67.84" x2="1279.05" y2="95.54" gradientTransform="translate(-1001.86)" gradientUnits="userSpaceOnUse">
      <stop offset="0" stop-color="#ff73b0"/>
      <stop offset="1" stop-color="#ff2e87"/>
    </linearGradient>
    <linearGradient id="linear-gradient-10" x1="-612.79" y1="874.72" x2="-557.56" y2="874.72" gradientTransform="translate(1273.56 671.21) rotate(75.11)" gradientUnits="userSpaceOnUse">
      <stop offset="0" stop-color="#c0fc58"/>
      <stop offset="1" stop-color="#43ba45"/>
    </linearGradient>
    <linearGradient id="linear-gradient-11" x1="1151.76" y1="68.45" x2="1227.11" y2="275.38" xlink:href="#linear-gradient"/>
    <linearGradient id="linear-gradient-12" x1="1224.8" y1="85.43" x2="1054.3" y2="299.43" gradientTransform="translate(-1001.86)" gradientUnits="userSpaceOnUse">
      <stop offset="0" stop-color="#ff387b"/>
      <stop offset="1" stop-color="#d11f4f"/>
    </linearGradient>
    <linearGradient id="linear-gradient-13" x1="1422.64" y1="268.5" x2="1554.5" y2="268.5" gradientTransform="translate(-1328.15 127.9) rotate(-8.58)" xlink:href="#linear-gradient"/>
    <linearGradient id="linear-gradient-14" x1="1422.64" y1="268.5" x2="1467.17" y2="268.5" gradientTransform="translate(-1328.15 127.9) rotate(-8.58)" gradientUnits="userSpaceOnUse">
      <stop offset="0" stop-color="#fff"/>
      <stop offset="1" stop-color="#ced2f7"/>
    </linearGradient>
    <linearGradient id="linear-gradient-15" x1="1466.38" y1="266.01" x2="1465.69" y2="273.09" gradientTransform="translate(-1328.15 127.9) rotate(-8.58)" xlink:href="#linear-gradient-2"/>
    <linearGradient id="linear-gradient-16" x1="1187.74" y1="211.27" x2="1308.45" y2="305" gradientTransform="translate(-1001.86)" xlink:href="#linear-gradient-14"/>
    <linearGradient id="linear-gradient-17" x1="-958.36" y1="1390.61" x2="-903.14" y2="1390.61" gradientTransform="translate(1657.61 1094.83) rotate(90)" gradientUnits="userSpaceOnUse">
      <stop offset="0" stop-color="#6bc6ff"/>
      <stop offset="1" stop-color="#4781ff"/>
    </linearGradient>
    <linearGradient id="linear-gradient-18" x1="1043.87" y1="323.06" x2="1081.62" y2="368.06" xlink:href="#linear-gradient-9"/>
    <linearGradient id="linear-gradient-19" x1="88.4" y1="136.47" x2="126.15" y2="181.47" gradientTransform="translate(313.65 -94.73) rotate(33.35)" xlink:href="#linear-gradient-10"/>
    <linearGradient id="linear-gradient-20" x1="581.9" y1="934.53" x2="615.34" y2="934.53" gradientTransform="translate(435.47 -1050.38) rotate(46.69)" xlink:href="#linear-gradient-2"/>
    <linearGradient id="linear-gradient-21" x1="176.15" y1="167.04" x2="176.15" y2="200.7" gradientTransform="translate(240.57 -242.93) rotate(38.11) skewX(7.27)" gradientUnits="userSpaceOnUse">
      <stop offset="0" stop-color="#fea305"/>
      <stop offset="1" stop-color="#fe7505"/>
    </linearGradient>
    <linearGradient id="linear-gradient-22" x1="-77.73" y1="175.28" x2="-81.4" y2="212.95" gradientTransform="translate(465.23 -66.88) rotate(38.11)" xlink:href="#linear-gradient-2"/>
    <linearGradient id="linear-gradient-23" x1="-509.68" y1="942.63" x2="-509.68" y2="976.3" gradientTransform="translate(-529.74 -242.93) rotate(141.89) scale(1 -1) skewX(7.27)" xlink:href="#linear-gradient-21"/>
    <linearGradient id="linear-gradient-24" x1="-664.68" y1="950.89" x2="-668.34" y2="988.56" gradientTransform="translate(-754.41 -66.88) rotate(141.89) scale(1 -1)" xlink:href="#linear-gradient-2"/>
    <linearGradient id="linear-gradient-25" x1="3002.55" y1="845.74" x2="3002.55" y2="879.4" gradientTransform="translate(2274.87 2735.89) rotate(-116.01) scale(1 -1) skewX(7.26)" xlink:href="#linear-gradient-21"/>
    <linearGradient id="linear-gradient-26" x1="2834.55" y1="854.05" x2="2830.88" y2="891.72" gradientTransform="translate(2149.63 2478.76) rotate(-116.01) scale(1 -1)" xlink:href="#linear-gradient-2"/>
    <linearGradient id="linear-gradient-27" x1="1238.9" y1="177.11" x2="1223.32" y2="177.36" gradientTransform="translate(-1001.86)" gradientUnits="userSpaceOnUse">
      <stop offset="0" stop-color="#3f444a"/>
      <stop offset="1" stop-color="#27272b"/>
    </linearGradient>
    <linearGradient id="linear-gradient-28" x1="1205.21" y1="157.85" x2="1231.6" y2="190.83" xlink:href="#linear-gradient-27"/>
    <linearGradient id="linear-gradient-29" x1="1211.37" y1="156.59" x2="1240.03" y2="200.59" xlink:href="#linear-gradient"/>
  </defs>
  <g class="cls-14">
    <g id="OBJECTS">
      <g>
        <path class="cls-15" d="m32.84,129.32c-40.5,32.37-44.58,97.34,4.5,107.28,69,13.97,190.65-54.16,231.57,15.22"/>
        <g class="cls-14">
          <polygon class="cls-6" points="48.49 135.91 29.46 149.3 81.28 135.68 100.31 122.29 48.49 135.91"/>
          <polygon class="cls-37" points="48.49 135.91 47.87 136.35 99.36 122.96 100.31 122.29 48.49 135.91"/>
          <polygon class="cls-38" points="68.02 50.85 24.24 62.35 48.49 135.91 100.31 122.29 68.02 50.85"/>
          <path class="cls-37" d="m78.83,88.42c-4.65-11.92-16.86-19.35-27.29-16.61-10.42,2.74-15.11,14.61-10.46,26.53,4.65,11.92,16.87,19.36,27.29,16.62,10.42-2.74,15.11-14.62,10.46-26.54Z"/>
          <path class="cls-13" d="m79.14,87.89c-4.65-11.92-16.86-19.35-27.29-16.61-10.42,2.74-15.11,14.61-10.46,26.53,4.65,11.92,16.87,19.36,27.29,16.62,10.42-2.74,15.11-14.62,10.46-26.54Z"/>
          <path class="cls-37" d="m69.99,91.03c-2.47-6.34-8.97-10.29-14.52-8.83-5.54,1.46-8.03,7.77-5.56,14.11,2.47,6.34,8.97,10.3,14.51,8.84,5.54-1.46,8.04-7.78,5.57-14.12Z"/>
          <path class="cls-28" d="m70.31,90.21c-2.47-6.34-8.97-10.29-14.52-8.83-5.54,1.46-8.03,7.77-5.56,14.11,2.47,6.34,8.97,10.3,14.51,8.84,5.54-1.46,8.04-7.78,5.57-14.12Z"/>
          <polygon class="cls-43" points="24.24 62.35 5.21 75.74 29.46 149.3 48.49 135.91 24.24 62.35"/>
          <polygon class="cls-37" points="24.24 62.35 23.69 62.74 47.87 136.35 48.49 135.91 24.24 62.35"/>
        </g>
        <g>
          <polygon class="cls-1" points="54.35 57.27 48.85 36.36 55.45 36.82 54.63 18.9 63.33 44.77 57.16 44.17 54.35 57.27"/>
          <polygon class="cls-36" points="67.1 63.49 74.71 45.32 78.81 51.05 95.61 36.32 80.02 59.38 75.71 56 67.1 63.49"/>
          <polygon class="cls-44" points="77.68 77.24 94.27 77.4 92.86 72.16 109.28 66.44 86.86 67.27 88.37 72.82 77.68 77.24"/>
        </g>
      </g>
      <g>
        <path class="cls-15" d="m383.59,215.14c43.32,19.23,55.78,68.09,29.32,87.67-63.55,47.05-148.55-83.08-252.53-65.51"/>
        <g class="cls-14">
          <polygon class="cls-6" points="364.19 223.77 383.23 237.16 331.41 223.55 312.38 210.16 364.19 223.77"/>
          <polygon class="cls-37" points="364.19 223.77 364.82 224.21 313.32 210.83 312.38 210.16 364.19 223.77"/>
          <polygon class="cls-27" points="344.67 138.71 388.44 150.21 364.19 223.77 312.38 210.16 344.67 138.71"/>
          <path class="cls-37" d="m333.86,176.28c4.65-11.92,16.86-19.35,27.29-16.61,10.42,2.74,15.11,14.61,10.46,26.53-4.65,11.92-16.87,19.36-27.29,16.62-10.42-2.74-15.11-14.62-10.46-26.54Z"/>
          <path class="cls-13" d="m333.55,175.76c4.65-11.92,16.86-19.35,27.29-16.61,10.42,2.74,15.11,14.61,10.46,26.53-4.65,11.92-16.87,19.36-27.29,16.62-10.42-2.74-15.11-14.62-10.46-26.54Z"/>
          <path class="cls-37" d="m342.69,178.89c2.47-6.34,8.97-10.29,14.52-8.83,5.54,1.46,8.03,7.77,5.56,14.11-2.47,6.34-8.97,10.3-14.51,8.84-5.54-1.46-8.04-7.78-5.57-14.12Z"/>
          <path class="cls-28" d="m342.38,178.08c2.47-6.34,8.97-10.29,14.52-8.83,5.54,1.46,8.03,7.77,5.56,14.11-2.47,6.34-8.97,10.3-14.51,8.84-5.54-1.46-8.04-7.78-5.57-14.12Z"/>
          <polygon class="cls-43" points="388.44 150.21 407.48 163.6 383.23 237.16 364.19 223.77 388.44 150.21"/>
          <polygon class="cls-37" points="388.44 150.21 389 150.6 364.82 224.21 364.19 223.77 388.44 150.21"/>
        </g>
        <g>
          <polygon class="cls-12" points="358.33 145.14 363.84 124.23 357.24 124.69 358.06 106.76 349.36 132.63 355.52 132.04 358.33 145.14"/>
          <polygon class="cls-30" points="345.58 151.35 337.98 133.19 333.87 138.92 317.07 124.19 332.66 147.24 336.97 143.87 345.58 151.35"/>
          <polygon class="cls-45" points="335 165.1 318.42 165.27 319.83 160.03 303.4 154.3 325.82 155.13 324.32 160.68 335 165.1"/>
        </g>
      </g>
      <path class="cls-16" d="m275.9,81.69c0,18.03-14.62,32.65-32.65,32.65s-32.65-14.62-32.65-32.65,14.62-32.65,32.65-32.65,32.65,14.62,32.65,32.65Z"/>
      <path class="cls-20" d="m243.23,315.5c-.52-1.96.61-4,2.57-4.59l15.59-4.68c1.96-.59,4.03.49,4.67,2.42l3.99,11.96,12.07-3.63c1.96-.59,4.03.49,4.67,2.43l3.98,11.95,12.06-3.63c1.96-.59,4.03.49,4.67,2.43l5.14,15.43c.64,2.01-.41,4.12-2.39,4.78-1.98.66-4.12-.41-4.78-2.39l-3.98-11.95-12.06,3.63c-1.96.59-4.03-.49-4.67-2.43l-3.98-11.95-12.07,3.63c-1.96.59-4.03-.48-4.67-2.42l-3.99-11.96-12.07,3.63c-2,.6-4.11-.53-4.71-2.53-.01-.04-.02-.08-.03-.12Z"/>
      <g class="cls-14">
        <polygon class="cls-43" points="109.79 244.98 89.18 75.9 88.52 75.9 87.59 76.63 106.29 243.71 107.97 245.34 108.86 245.22 109.79 244.98"/>
        <polygon class="cls-37" points="89.18 75.9 88.53 75.9 88.39 76.01 108.55 245.26 108.86 245.22 109.65 245.01 109.66 244.6 109.74 244.58 89.18 75.9"/>
        <path class="cls-19" d="m254.83,71.29c-41.58,1.15-166.31,4.61-166.31,4.61l20.34,169.32,157.24-41.89s-6.93-97.76-9.24-130.35c-.17-1.24-.65-1.82-2.03-1.69Z"/>
        <polygon class="cls-46" points="99.25 87.31 252.48 81.69 260.3 191.91 115.32 223.56 99.25 87.31"/>
        <path class="cls-2" d="m170.15,124.69c-1.14-5.63,2.66-7.94,8.43-5.12l21.47,10.48c5.77,2.82,6.7,7.42,2.07,10.24l-17.25,10.48c-4.64,2.81-9.36.51-10.5-5.12l-4.23-20.96Z"/>
        <g>
          <path class="cls-47" d="m249.01,161.46c.08.54-.29,1.04-.83,1.13l-128.43,19.38c-.54.08-1.04-.29-1.12-.83h0c-.08-.54.29-1.04.83-1.12l128.43-19.38c.54-.08,1.04.29,1.12.83h0Z"/>
          <path class="cls-9" d="m162.66,174.49c.08.54-.29,1.04-.83,1.13l-42.08,6.35c-.54.08-1.04-.29-1.12-.83h0c-.08-.54.29-1.04.83-1.12l42.08-6.35c.54-.08,1.04.29,1.12.83h0Z"/>
          <path class="cls-5" d="m164.28,174.25c.22,1.46-.79,2.83-2.25,3.05-1.46.22-2.83-.79-3.05-2.25-.22-1.47.79-2.83,2.25-3.05,1.46-.22,2.83.79,3.05,2.25Z"/>
          <path class="cls-2" d="m162.86,174.46c.1.68-.37,1.31-1.05,1.42-.68.1-1.31-.37-1.42-1.05-.1-.68.36-1.31,1.04-1.42.68-.1,1.32.37,1.42,1.05Z"/>
        </g>
        <polygon class="cls-35" points="250.8 83.52 258.51 192.31 260.3 191.91 252.48 81.69 99.25 87.31 99.46 89.07 250.8 83.52"/>
        <polygon class="cls-10" points="209.31 332.06 209.43 335.34 376.19 259.01 376.3 256.54 209.31 332.06"/>
        <polygon class="cls-2" points="209.31 332.06 209.31 332.45 376.28 257 376.3 256.54 209.31 332.06"/>
        <polygon class="cls-23" points="266.1 203.33 108.86 245.22 209.31 332.06 376.3 256.54 266.1 203.33"/>
        <polygon class="cls-4" points="209.31 332.06 108.86 245.22 107.97 245.34 107.97 245.34 108.61 246.81 109.25 250.08 209.43 335.34 209.31 332.06"/>
        <polygon class="cls-2" points="209.31 332.06 108.86 245.22 107.97 245.34 107.97 245.34 209.31 332.45 209.31 332.06"/>
        <g>
          <path class="cls-22" d="m314.23,236.46c-1.97-.99-2.95-1.48-4.89-2.44-1.14-.57-2.71-.81-3.5-.54-1.44.48-2.17.73-3.64,1.21-.8.27-.55.96.6,1.54,1.94.99,2.91,1.49,4.89,2.49,1.16.59,2.78.85,3.59.57,1.46-.51,2.19-.77,3.64-1.27.79-.28.48-.98-.68-1.56Z"/>
          <path class="cls-22" d="m306.39,239.17c-1.98-1.01-2.95-1.51-4.89-2.5-1.14-.58-2.72-.83-3.54-.56-1.52.51-2.29.77-3.83,1.29-.83.28-.59.99.55,1.59,1.94,1.01,2.91,1.53,4.89,2.56,1.16.61,2.8.87,3.63.58,1.55-.54,2.31-.81,3.83-1.34.82-.29.52-1.01-.64-1.61Z"/>
          <path class="cls-22" d="m298.22,242.01c-1.98-1.04-2.95-1.56-4.89-2.57-1.14-.6-2.75-.85-3.59-.57-1.24.42-1.87.63-3.12,1.05-.85.29-.64,1.02.5,1.63,1.94,1.04,2.91,1.57,4.88,2.63,1.16.62,2.83.89,3.68.59,1.26-.44,1.88-.66,3.13-1.1.84-.3.57-1.05-.59-1.66Z"/>
          <path class="cls-22" d="m290.63,244.66c-1.97-1.07-2.95-1.6-4.89-2.64-1.14-.61-2.76-.87-3.64-.57-1.42.48-2.14.72-3.59,1.21-.88.3-.69,1.05.45,1.68,1.93,1.07,2.9,1.61,4.88,2.7,1.16.64,2.85.92,3.73.6,1.45-.51,2.16-.77,3.59-1.27.87-.31.62-1.08-.54-1.7Z"/>
          <path class="cls-22" d="m282.43,247.54c-1.97-1.1-2.95-1.64-4.88-2.71-1.14-.63-2.79-.89-3.68-.58-16.52,5.62-33.03,11.29-49.53,16.98-1.08.37-1.08,1.28.04,2.03,1.89,1.26,2.84,1.9,4.78,3.2,1.14.76,2.97,1.07,4.06.68,16.55-6,33.12-11.94,49.7-17.83.9-.32.67-1.11-.49-1.76Z"/>
          <path class="cls-22" d="m227.39,267.07c-1.93-1.3-2.88-1.94-4.77-3.21-1.11-.75-2.91-1.04-4.01-.66-1.86.65-2.8.97-4.69,1.63-1.12.39-1.16,1.33-.05,2.1,1.87,1.3,2.82,1.96,4.74,3.3,1.13.79,3,1.1,4.13.69,1.9-.69,2.84-1.03,4.71-1.71,1.11-.4,1.07-1.36-.06-2.13Z"/>
          <path class="cls-22" d="m216.79,270.88c-1.92-1.34-2.86-2.01-4.73-3.31-1.1-.77-2.92-1.07-4.06-.67-1.96.68-2.95,1.03-4.94,1.72-1.16.41-1.24,1.38-.15,2.17,1.86,1.34,2.8,2.02,4.7,3.4,1.12.81,3.01,1.13,4.19.71,2.01-.73,3-1.09,4.97-1.81,1.15-.42,1.15-1.41.03-2.2Z"/>
          <path class="cls-22" d="m205.72,274.88c-1.9-1.39-2.84-2.07-4.69-3.42-1.09-.8-2.94-1.1-4.13-.69-1.95.68-2.93,1.03-4.91,1.72-1.21.42-1.33,1.43-.24,2.24,1.84,1.39,2.77,2.09,4.65,3.51,1.11.84,3.03,1.16,4.25.72,1.99-.73,2.98-1.09,4.95-1.81,1.2-.44,1.25-1.46.13-2.28Z"/>
          <path class="cls-22" d="m194.43,278.95c-1.88-1.43-2.81-2.14-4.65-3.53-1.08-.82-2.96-1.13-4.19-.7-2.29.8-3.44,1.21-5.77,2.02-1.26.44-1.43,1.49-.36,2.33,1.82,1.43,2.74,2.16,4.6,3.63,1.1.87,3.05,1.2,4.32.73,2.35-.86,3.51-1.29,5.82-2.13,1.24-.46,1.33-1.52.23-2.36Z"/>
          <path class="cls-22" d="m300,228.34c1.86.92,2.81,1.39,4.71,2.33,1.11.55,2.67.8,3.45.54,1.59-.52,2.37-.78,3.94-1.3.77-.25.48-.9-.63-1.44-1.9-.92-2.84-1.38-4.71-2.28-1.09-.53-2.6-.76-3.37-.52-1.56.5-2.35.74-3.94,1.25-.78.25-.54.89.55,1.43Z"/>
          <path class="cls-22" d="m300.4,233.78c1.46-.49,2.19-.73,3.64-1.2.79-.26.52-.94-.59-1.49-1.9-.95-2.84-1.41-4.7-2.34-1.09-.54-2.62-.78-3.41-.53-1.44.46-2.17.69-3.63,1.15-.8.26-.58.92.51,1.47,1.86.95,2.8,1.42,4.71,2.39,1.11.57,2.69.81,3.49.54Z"/>
          <path class="cls-22" d="m284.82,238.97c4.64-1.55,6.9-2.3,11.34-3.78.82-.27.56-.96-.55-1.53-1.9-.97-2.84-1.45-4.7-2.4-1.09-.56-2.64-.8-3.46-.54-4.43,1.41-6.69,2.14-11.32,3.62-.85.27-.67.97.41,1.55,1.86.99,2.8,1.49,4.7,2.51,1.11.59,2.73.85,3.58.56Z"/>
          <path class="cls-22" d="m276.73,241.68c1.44-.48,2.16-.73,3.58-1.2.87-.29.66-1.02-.45-1.62-1.9-1.02-2.83-1.52-4.69-2.52-1.09-.58-2.67-.83-3.54-.55-1.42.46-2.14.68-3.58,1.15-.88.28-.73,1,.36,1.59,1.86,1.02,2.79,1.53,4.69,2.58,1.11.61,2.75.87,3.63.58Z"/>
          <path class="cls-22" d="m267.88,244.66c1.69-.57,2.53-.85,4.19-1.41.9-.3.71-1.05-.39-1.66-1.89-1.05-2.83-1.56-4.69-2.59-1.08-.6-2.69-.85-3.59-.56-1.66.54-2.5.8-4.18,1.35-.91.29-.78,1.03.3,1.65,1.85,1.05,2.79,1.58,4.68,2.65,1.11.63,2.77.89,3.68.58Z"/>
          <path class="cls-22" d="m259.7,247.41c1.35-.46,2.02-.68,3.35-1.13.93-.31.77-1.09-.33-1.72-1.89-1.08-2.82-1.61-4.67-2.66-1.08-.61-2.71-.87-3.64-.57-1.33.43-2,.65-3.34,1.08-.94.3-.83,1.06.24,1.69,1.84,1.07,2.78,1.61,4.66,2.71,1.1.64,2.79.91,3.73.59Z"/>
          <path class="cls-22" d="m250.59,250.5c1.67-.57,2.49-.85,4.13-1.4.96-.33.83-1.12-.27-1.77-1.88-1.1-2.81-1.65-4.66-2.73-1.08-.63-2.73-.89-3.69-.58-1.63.53-2.46.79-4.12,1.33-.97.32-.9,1.1.18,1.75,1.84,1.1,2.77,1.66,4.64,2.79,1.1.66,2.81.93,3.78.6Z"/>
          <path class="cls-22" d="m241.34,253.65c1.65-.56,2.47-.84,4.1-1.4.99-.34.89-1.16-.2-1.83-1.88-1.14-2.8-1.69-4.64-2.8-1.07-.65-2.75-.91-3.74-.59-1.62.53-2.44.79-4.09,1.33-1,.33-.97,1.14.1,1.8,1.83,1.13,2.75,1.71,4.62,2.87,1.09.68,2.83.96,3.84.62Z"/>
          <path class="cls-22" d="m231.19,257.12c1.94-.67,2.9-1,4.81-1.65,1.03-.35.96-1.2-.13-1.88-1.87-1.17-2.79-1.74-4.62-2.88-1.07-.67-2.76-.94-3.79-.6-1.9.62-2.86.93-4.79,1.57-1.04.34-1.04,1.18.02,1.86,1.82,1.17,2.74,1.76,4.59,2.96,1.09.7,2.85.99,3.9.63Z"/>
          <path class="cls-22" d="m221.11,260.57c1.83-.63,2.74-.94,4.54-1.56,1.07-.37,1.04-1.24-.04-1.95-1.85-1.2-2.77-1.8-4.59-2.97-1.06-.69-2.78-.96-3.85-.61-1.79.59-2.69.89-4.51,1.49-1.08.35-1.11,1.22-.06,1.92,1.8,1.2,2.72,1.81,4.56,3.05,1.08.72,2.87,1.01,3.95.64Z"/>
          <path class="cls-22" d="m210.6,264.19c1.93-.66,2.88-1,4.78-1.65,1.11-.38,1.12-1.29.04-2.01-1.84-1.24-2.75-1.86-4.55-3.07-1.05-.71-2.8-.99-3.9-.62-1.88.62-2.83.93-4.75,1.57-1.12.37-1.19,1.26-.15,1.99,1.79,1.24,2.69,1.87,4.52,3.15,1.07.75,2.89,1.04,4.01.65Z"/>
          <path class="cls-22" d="m199.89,267.88c1.91-.66,2.87-.99,4.75-1.64,1.15-.4,1.2-1.34.13-2.09-1.83-1.28-2.73-1.91-4.51-3.16-1.04-.73-2.81-1.01-3.96-.64-1.87.62-2.82.93-4.72,1.56-1.16.38-1.28,1.31-.24,2.06,1.77,1.28,2.67,1.93,4.48,3.24,1.06.77,2.9,1.07,4.07.67Z"/>
          <path class="cls-22" d="m179.58,267.92c1.75,1.32,2.63,1.99,4.42,3.35,1.05.79,2.92,1.11,4.13.69,2.25-.78,3.37-1.17,5.58-1.94,1.19-.41,1.28-1.39.23-2.16-1.81-1.32-2.7-1.97-4.47-3.26-1.03-.75-2.83-1.04-4.01-.65-2.19.73-3.3,1.09-5.53,1.83-1.2.4-1.37,1.36-.34,2.13Z"/>
          <path class="cls-22" d="m182.04,271.95c-1.79-1.37-2.67-2.04-4.41-3.37-1.02-.78-2.84-1.08-4.07-.67-7.28,2.42-11.01,3.67-18.71,6.25-1.3.44-1.57,1.47-.58,2.3,1.7,1.42,2.55,2.14,4.29,3.6,1.02.85,2.94,1.17,4.26.72,7.78-2.72,11.56-4.03,18.9-6.58,1.24-.43,1.38-1.44.33-2.24Z"/>
          <path class="cls-22" d="m290.04,223.41c1.71.85,2.58,1.28,4.32,2.14,1.06.53,2.59.76,3.37.52,1.59-.5,2.37-.75,3.94-1.24.77-.24.51-.86-.55-1.38-1.75-.85-2.61-1.27-4.33-2.1-1.05-.51-2.52-.73-3.29-.5-1.56.47-2.35.71-3.93,1.19-.78.24-.58.85.47,1.37Z"/>
          <path class="cls-22" d="m279.07,231.95c5.98-1.89,8.88-2.81,14.53-4.59.79-.25.56-.89-.5-1.42-1.75-.87-2.61-1.3-4.32-2.15-1.04-.52-2.54-.74-3.33-.5-5.65,1.71-8.55,2.59-14.52,4.41-.84.25-.68.91.36,1.45,1.71.9,2.57,1.35,4.31,2.26,1.06.56,2.63.8,3.47.54Z"/>
          <path class="cls-22" d="m270.99,234.52c1.48-.47,2.21-.7,3.66-1.16.85-.27.67-.95-.39-1.51-1.74-.92-2.6-1.37-4.31-2.27-1.04-.55-2.58-.78-3.43-.52-1.45.44-2.18.67-3.66,1.12-.86.26-.73.93.31,1.49,1.71.92,2.56,1.38,4.3,2.32,1.06.57,2.65.81,3.51.54Z"/>
          <path class="cls-22" d="m262.8,237.13c1.46-.47,2.18-.7,3.63-1.16.88-.28.72-.98-.34-1.56-1.74-.94-2.59-1.4-4.3-2.33-1.04-.56-2.59-.79-3.47-.53-1.44.44-2.16.66-3.62,1.11-.89.27-.78.96.26,1.54,1.7.94,2.56,1.41,4.29,2.37,1.06.59,2.66.83,3.55.55Z"/>
          <path class="cls-22" d="m253.85,239.99c1.71-.55,2.56-.82,4.24-1.36.91-.29.77-1.01-.28-1.6-1.73-.96-2.59-1.44-4.29-2.38-1.04-.57-2.61-.81-3.52-.54-1.68.52-2.52.77-4.22,1.3-.92.28-.84.99.19,1.58,1.7.96,2.55,1.45,4.28,2.43,1.05.6,2.68.86,3.61.56Z"/>
          <path class="cls-22" d="m245.6,242.64c1.36-.44,2.04-.66,3.39-1.09.94-.3.83-1.05-.22-1.65-1.73-.99-2.58-1.48-4.27-2.45-1.03-.59-2.63-.84-3.57-.55-1.34.41-2.02.62-3.38,1.04-.95.29-.89,1.02.14,1.62,1.69.99,2.54,1.49,4.26,2.5,1.05.62,2.7.88,3.65.57Z"/>
          <path class="cls-22" d="m236.39,245.61c1.68-.54,2.52-.81,4.17-1.34.97-.31.89-1.08-.16-1.7-1.72-1.01-2.57-1.51-4.25-2.51-1.03-.61-2.64-.86-3.61-.56-1.65.51-2.48.77-4.16,1.29-.98.3-.96,1.05.06,1.67,1.68,1.01,2.53,1.53,4.24,2.56,1.04.63,2.72.9,3.7.58Z"/>
          <path class="cls-22" d="m227.05,248.63c1.67-.54,2.5-.81,4.14-1.34,1-.32.96-1.11-.09-1.75-1.71-1.04-2.56-1.56-4.23-2.58-1.02-.62-2.66-.87-3.66-.56-1.64.51-2.46.76-4.12,1.28-1.01.32-1.03,1.09,0,1.73,1.67,1.04,2.51,1.57,4.21,2.64,1.04.65,2.74.92,3.75.59Z"/>
          <path class="cls-22" d="m216.81,251.96c1.96-.64,2.93-.96,4.85-1.58,1.04-.34,1.02-1.15-.02-1.81-1.7-1.07-2.54-1.6-4.21-2.65-1.02-.64-2.68-.9-3.71-.57-1.91.6-2.88.9-4.82,1.51-1.05.33-1.1,1.13-.09,1.78,1.66,1.08,2.49,1.62,4.18,2.72,1.03.67,2.75.95,3.81.6Z"/>
          <path class="cls-22" d="m206.66,255.27c1.84-.6,2.76-.9,4.57-1.49,1.08-.35,1.1-1.2.07-1.87-1.69-1.11-2.52-1.65-4.17-2.73-1.01-.66-2.69-.92-3.76-.59-1.8.56-2.71.85-4.54,1.43-1.09.34-1.17,1.17-.17,1.85,1.64,1.11,2.47,1.66,4.14,2.8,1.02.69,2.77.97,3.86.61Z"/>
          <path class="cls-22" d="m196.06,258.73c1.94-.64,2.9-.95,4.81-1.57,1.12-.37,1.18-1.24.16-1.93-1.67-1.14-2.5-1.7-4.14-2.82-1-.68-2.71-.95-3.81-.6-1.89.59-2.85.9-4.78,1.5-1.13.35-1.25,1.21-.26,1.91,1.62,1.14,2.45,1.72,4.11,2.89,1.01.71,2.78,1,3.92.62Z"/>
          <path class="cls-22" d="m177.26,258.65c1.61,1.18,2.42,1.77,4.06,2.98,1,.74,2.79,1.03,3.97.64,1.93-.63,2.88-.95,4.78-1.57,1.16-.38,1.26-1.28.25-2-1.66-1.18-2.47-1.76-4.1-2.91-.99-.7-2.72-.97-3.87-.61-1.88.59-2.83.89-4.74,1.49-1.17.37-1.33,1.25-.36,1.97Z"/>
          <path class="cls-22" d="m165.44,262.43c1.58,1.22,2.38,1.83,4,3.08.99.76,2.81,1.06,4.03.65,2.26-.75,3.38-1.11,5.6-1.84,1.2-.39,1.34-1.33.35-2.07-1.64-1.21-2.45-1.81-4.05-3-.98-.72-2.73-1-3.92-.62-2.2.7-3.31,1.05-5.55,1.76-1.21.38-1.43,1.3-.46,2.04Z"/>
          <path class="cls-22" d="m167.47,266.16c-1.62-1.26-2.41-1.87-3.99-3.1-.96-.75-2.74-1.04-3.97-.65-5.33,1.69-8.05,2.56-13.61,4.33-1.29.41-1.58,1.38-.65,2.17,1.54,1.29,2.32,1.94,3.89,3.26.96.8,2.83,1.12,4.13.68,5.61-1.86,8.36-2.77,13.75-4.56,1.24-.41,1.44-1.38.45-2.15Z"/>
          <path class="cls-22" d="m279.94,218.43c1.86.92,2.79,1.37,4.69,2.31,1.02.5,2.51.73,3.29.5,1.58-.48,2.37-.71,3.94-1.18.77-.23.55-.83-.48-1.32-1.9-.92-2.83-1.37-4.69-2.27-1-.48-2.44-.7-3.21-.48-1.56.45-2.35.68-3.93,1.14-.78.23-.61.81.39,1.31Z"/>
          <path class="cls-22" d="m283.37,221.11c-1.89-.94-2.83-1.4-4.69-2.32-1-.5-2.46-.71-3.25-.48-3.63,1.05-5.48,1.59-9.23,2.68-.82.24-.68.85.32,1.36,1.85.95,2.79,1.43,4.67,2.4,1.02.52,2.54.75,3.36.5,3.76-1.14,5.61-1.69,9.24-2.79.79-.24.59-.85-.43-1.36Z"/>
          <path class="cls-22" d="m263.11,227.18c1.02.54,2.55.77,3.4.51,1.5-.46,2.24-.68,3.72-1.13.83-.25.67-.89-.35-1.42-1.89-.97-2.82-1.46-4.67-2.41-1-.51-2.48-.73-3.32-.49-1.48.43-2.22.65-3.71,1.08-.84.25-.73.87.27,1.4,1.85.97,2.78,1.46,4.67,2.45Z"/>
          <path class="cls-22" d="m253.73,224.63c-1.46.43-2.2.64-3.69,1.07-.87.25-.78.9.21,1.43,1.84.99,2.77,1.49,4.65,2.51,1.02.55,2.57.78,3.44.52,1.49-.45,2.23-.68,3.7-1.12.86-.26.72-.92-.3-1.45-1.88-1-2.82-1.49-4.66-2.46-1-.53-2.5-.75-3.36-.5Z"/>
          <path class="cls-22" d="m245.46,227.04c-1.45.42-2.18.64-3.65,1.07-.89.26-.83.92.16,1.47,1.84,1.02,2.76,1.53,4.63,2.57,1.01.56,2.59.8,3.49.53,1.47-.45,2.2-.67,3.66-1.11.89-.27.77-.95-.25-1.5-1.88-1.02-2.81-1.52-4.65-2.52-.99-.54-2.51-.77-3.4-.51Z"/>
          <path class="cls-22" d="m237.09,229.49c-1.69.49-2.54.75-4.25,1.25-.93.27-.89.95.1,1.51,1.83,1.04,2.75,1.57,4.62,2.64,1.01.58,2.61.82,3.54.54,1.72-.53,2.57-.79,4.27-1.3.91-.28.82-.98-.19-1.54-1.87-1.05-2.8-1.56-4.63-2.58-.99-.55-2.53-.78-3.45-.51Z"/>
          <path class="cls-22" d="m227.96,232.17c-1.35.4-2.03.6-3.4,1-.95.28-.94.98.04,1.55,1.82,1.07,2.74,1.61,4.59,2.7,1,.59,2.62.84,3.58.55,1.37-.42,2.06-.63,3.41-1.05.95-.29.88-1-.13-1.58-1.86-1.07-2.79-1.6-4.61-2.65-.99-.57-2.55-.8-3.49-.52Z"/>
          <path class="cls-22" d="m219.52,234.65c-1.66.49-2.49.74-4.18,1.23-.99.29-1,1.01-.03,1.6,1.81,1.1,2.72,1.65,4.57,2.78,1,.61,2.63.86,3.62.56,1.69-.52,2.53-.78,4.2-1.29.98-.3.94-1.04-.06-1.63-1.86-1.1-2.77-1.64-4.59-2.72-.98-.58-2.57-.81-3.54-.53Z"/>
          <path class="cls-22" d="m210.15,237.42c-1.64.49-2.47.73-4.14,1.22-1.02.3-1.07,1.04-.1,1.65,1.79,1.13,2.7,1.7,4.53,2.85.99.62,2.65.88,3.68.57,1.68-.52,2.51-.78,4.16-1.29,1.01-.31,1.01-1.07.01-1.68-1.85-1.13-2.76-1.69-4.56-2.79-.97-.6-2.58-.84-3.58-.54Z"/>
          <path class="cls-22" d="m200.63,240.24c-1.92.57-2.89.86-4.84,1.44-1.05.31-1.15,1.08-.19,1.7,1.78,1.16,2.68,1.75,4.5,2.94.98.64,2.67.91,3.73.58,1.97-.61,2.94-.91,4.88-1.51,1.04-.32,1.07-1.1.08-1.73-1.83-1.16-2.74-1.73-4.53-2.87-.97-.61-2.59-.86-3.63-.55Z"/>
          <path class="cls-22" d="m190.22,243.34c-1.81.54-2.72.81-4.56,1.35-1.09.33-1.22,1.12-.27,1.76,1.76,1.2,2.65,1.8,4.45,3.03.97.66,2.68.93,3.78.59,1.85-.58,2.77-.86,4.59-1.43,1.08-.34,1.15-1.14.17-1.79-1.82-1.2-2.71-1.79-4.49-2.96-.96-.63-2.61-.88-3.68-.56Z"/>
          <path class="cls-22" d="m179.91,246.41c-1.9.57-2.86.85-4.79,1.43-1.13.34-1.29,1.15-.36,1.82,1.74,1.24,2.62,1.86,4.4,3.13.96.69,2.7.96,3.83.61,1.95-.61,2.91-.91,4.83-1.51,1.12-.35,1.22-1.19.25-1.85-1.8-1.24-2.68-1.84-4.44-3.04-.95-.65-2.62-.91-3.73-.58Z"/>
          <path class="cls-22" d="m169.17,249.62c-1.88.56-2.84.85-4.75,1.42-1.17.35-1.38,1.2-.45,1.88,1.72,1.27,2.58,1.92,4.34,3.23.95.71,2.71.99,3.89.62,1.93-.6,2.89-.9,4.79-1.5,1.16-.36,1.3-1.23.34-1.92-1.78-1.27-2.65-1.9-4.39-3.14-.94-.67-2.63-.93-3.78-.59Z"/>
          <path class="cls-22" d="m152.14,256.52c1.69,1.32,2.54,1.98,4.27,3.33.93.73,2.72,1.02,3.94.64,2.26-.71,3.38-1.07,5.61-1.76,1.2-.38,1.4-1.27.45-1.98-1.75-1.31-2.62-1.96-4.33-3.24-.92-.69-2.64-.96-3.83-.61-2.2.66-3.31,1-5.55,1.67-1.21.36-1.47,1.24-.56,1.95Z"/>
          <path class="cls-22" d="m154.45,260.47c-1.73-1.36-2.58-2.03-4.26-3.36-.91-.71-2.64-.99-3.88-.62-3.7,1.12-5.58,1.68-9.38,2.83-1.27.38-1.59,1.3-.7,2.05,1.65,1.38,2.48,2.07,4.17,3.49.91.76,2.72,1.06,4.01.66,3.85-1.21,5.74-1.81,9.48-2.99,1.25-.39,1.49-1.32.55-2.05Z"/>
          <path class="cls-22" d="m142.44,254.32c-1.45-1.16-2.17-1.73-3.6-2.86-.86-.69-2.55-.96-3.78-.6-2.46.71-3.7,1.06-6.21,1.78-1.25.36-1.6,1.23-.75,1.93,1.4,1.17,2.1,1.76,3.53,2.95.87.72,2.63,1.01,3.89.63,2.53-.76,3.78-1.13,6.27-1.87,1.24-.37,1.52-1.25.64-1.96Z"/>
          <path class="cls-22" d="m146.96,247.45c-2.2.63-3.3.95-5.53,1.58-1.21.35-1.5,1.18-.63,1.87,1.43,1.13,2.15,1.69,3.61,2.84.88.7,2.62.98,3.84.61,2.26-.67,3.37-1.01,5.59-1.67,1.2-.36,1.43-1.21.53-1.88-1.48-1.12-2.21-1.67-3.67-2.76-.88-.66-2.55-.92-3.74-.58Z"/>
          <path class="cls-22" d="m157.85,244.34c-1.88.54-2.83.81-4.74,1.35-1.16.33-1.41,1.14-.53,1.8,1.45,1.09,2.19,1.63,3.67,2.75.9.67,2.61.94,3.78.59,1.93-.57,2.88-.85,4.78-1.42,1.16-.34,1.34-1.17.43-1.82-1.5-1.08-2.24-1.62-3.71-2.68-.89-.64-2.55-.9-3.69-.57Z"/>
          <path class="cls-22" d="m168.57,241.29c-1.9.54-2.86.81-4.78,1.36-1.13.32-1.33,1.1-.43,1.74,1.48,1.05,2.22,1.58,3.73,2.66.91.65,2.6.92,3.74.58,1.94-.58,2.91-.86,4.82-1.43,1.12-.33,1.27-1.13.34-1.76-1.52-1.05-2.28-1.57-3.77-2.6-.9-.62-2.53-.87-3.64-.55Z"/>
          <path class="cls-22" d="m178.88,238.36c-1.81.51-2.72.77-4.55,1.29-1.09.31-1.25,1.07-.35,1.69,1.5,1.02,2.25,1.54,3.77,2.58.92.63,2.59.89,3.69.57,1.85-.55,2.77-.82,4.59-1.36,1.08-.32,1.19-1.09.26-1.71-1.54-1.02-2.3-1.52-3.81-2.52-.91-.6-2.53-.85-3.6-.54Z"/>
          <path class="cls-22" d="m189.29,235.41c-1.92.54-2.89.82-4.84,1.37-1.05.3-1.18,1.03-.27,1.63,1.51.99,2.27,1.49,3.82,2.51.93.61,2.58.86,3.64.55,1.97-.58,2.94-.86,4.88-1.43,1.04-.31,1.11-1.06.17-1.66-1.55-.99-2.32-1.48-3.85-2.44-.92-.59-2.51-.82-3.55-.53Z"/>
          <path class="cls-22" d="m198.81,232.72c-1.65.46-2.47.7-4.14,1.17-1.02.29-1.11,1-.19,1.58,1.53.96,2.3,1.45,3.85,2.43.94.6,2.57.84,3.59.54,1.68-.49,2.51-.74,4.17-1.23,1.01-.3,1.05-1.02.1-1.6-1.57-.96-2.34-1.44-3.88-2.38-.93-.57-2.5-.8-3.51-.52Z"/>
          <path class="cls-22" d="m208.21,230.07c-1.66.47-2.5.71-4.19,1.18-.99.28-1.05.97-.12,1.53,1.54.94,2.32,1.41,3.89,2.37.95.58,2.55.82,3.55.53,1.7-.5,2.54-.74,4.21-1.23.98-.29.98-.99.03-1.56-1.58-.94-2.36-1.4-3.91-2.31-.94-.55-2.49-.78-3.46-.51Z"/>
          <path class="cls-22" d="m216.66,227.69c-1.35.38-2.03.57-3.4.96-.96.27-.98.94-.04,1.49,1.55.91,2.33,1.37,3.91,2.31.96.57,2.54.8,3.5.52,1.38-.4,2.06-.6,3.42-1,.95-.28.92-.96-.04-1.51-1.59-.91-2.37-1.36-3.93-2.26-.94-.54-2.48-.77-3.42-.5Z"/>
          <path class="cls-22" d="m225.83,225.11c-1.69.48-2.55.72-4.26,1.2-.93.26-.92.91.02,1.45,1.56.89,2.35,1.34,3.93,2.25.96.55,2.52.79,3.46.51,1.73-.5,2.58-.75,4.28-1.25.92-.27.86-.93-.1-1.47-1.6-.89-2.38-1.33-3.95-2.2-.95-.53-2.46-.75-3.37-.49Z"/>
          <path class="cls-22" d="m234.22,222.76c-1.45.41-2.18.61-3.66,1.03-.9.25-.87.89.08,1.41,1.57.87,2.36,1.31,3.96,2.19.97.54,2.51.77,3.41.5,1.48-.43,2.21-.64,3.67-1.07.89-.26.81-.9-.16-1.43-1.6-.87-2.4-1.3-3.97-2.15-.95-.52-2.44-.73-3.33-.49Z"/>
          <path class="cls-22" d="m242.53,220.43c-1.47.41-2.21.62-3.7,1.04-.87.24-.82.86.13,1.38,1.57.85,2.37,1.28,3.97,2.15.97.52,2.5.75,3.37.5,1.5-.43,2.24-.65,3.71-1.08.86-.25.76-.88-.21-1.39-1.61-.85-2.4-1.27-3.98-2.11-.96-.5-2.43-.72-3.29-.48Z"/>
          <path class="cls-22" d="m250.73,218.14c-1.49.41-2.23.62-3.74,1.04-.84.24-.77.84.19,1.34,1.58.83,2.38,1.25,3.99,2.1.97.51,2.48.73,3.32.49,1.51-.44,2.26-.65,3.74-1.08.84-.24.71-.85-.26-1.36-1.61-.83-2.41-1.24-3.99-2.06-.96-.49-2.41-.7-3.25-.47Z"/>
          <path class="cls-22" d="m273.5,216.23c-1.62-.8-2.42-1.19-4.01-1.98-.96-.47-2.39-.68-3.17-.46-4.41,1.23-6.65,1.86-11.24,3.14-.82.23-.72.82.24,1.31,1.58.81,2.38,1.22,4,2.05.98.5,2.46.72,3.29.48,4.6-1.33,6.85-1.98,11.26-3.25.79-.23.63-.82-.35-1.3Z"/>
          <path class="cls-22" d="m270.74,213.89c1.59.78,2.39,1.18,4.01,1.97.98.48,2.43.7,3.21.47,1.58-.46,2.37-.68,3.93-1.13.77-.22.59-.79-.4-1.27-1.62-.78-2.42-1.17-4.02-1.94-.96-.46-2.37-.67-3.14-.45-1.56.43-2.34.65-3.92,1.09-.78.22-.64.78.32,1.25Z"/>
          <path class="cls-22" d="m257.65,213.12c.25.13.38.19.64.32.94.47,2.37.68,3.17.46,1.31-.36,1.96-.54,3.25-.9.79-.22.66-.78-.29-1.25-.25-.12-.38-.19-.63-.31-.94-.46-2.34-.66-3.13-.45-1.29.35-1.94.53-3.25.88-.8.22-.7.78.24,1.25Z"/>
          <path class="cls-22" d="m249.62,215.33c.25.13.38.19.63.32.94.48,2.39.69,3.21.46,1.52-.42,2.28-.63,3.78-1.05.81-.22.69-.79-.25-1.27-.25-.13-.38-.19-.63-.32-.94-.47-2.35-.67-3.16-.45-1.5.41-2.25.61-3.77,1.03-.82.22-.74.8.2,1.28Z"/>
          <path class="cls-22" d="m241.52,217.55c.25.13.38.2.63.33.94.49,2.4.7,3.25.47,1.5-.42,2.25-.62,3.74-1.04.83-.23.74-.82-.2-1.3-.25-.13-.38-.19-.63-.32-.93-.48-2.37-.69-3.2-.46-1.48.4-2.22.61-3.73,1.02-.84.23-.78.82.15,1.31Z"/>
          <path class="cls-22" d="m233.32,219.81c.25.13.38.2.63.34.93.5,2.42.72,3.29.48,1.49-.41,2.23-.62,3.7-1.03.86-.24.79-.84-.15-1.33-.25-.13-.38-.2-.63-.33-.93-.49-2.39-.7-3.24-.46-1.47.4-2.21.6-3.69,1.01-.87.24-.83.84.09,1.34Z"/>
          <path class="cls-22" d="m225.03,222.09c.25.14.38.21.63.35.93.51,2.43.73,3.33.48,1.47-.41,2.2-.61,3.65-1.02.89-.25.84-.86-.09-1.36-.25-.14-.38-.21-.63-.34-.93-.5-2.4-.71-3.28-.47-1.45.4-2.18.59-3.65,1-.9.24-.88.86.04,1.37Z"/>
          <path class="cls-22" d="m215.99,224.58c.25.14.37.21.62.35.92.53,2.45.75,3.38.49,1.72-.48,2.57-.72,4.26-1.19.91-.25.89-.89-.04-1.4-.25-.14-.37-.21-.62-.35-.92-.51-2.41-.73-3.32-.48-1.69.46-2.54.69-4.25,1.16-.93.25-.94.88-.02,1.41Z"/>
          <path class="cls-22" d="m207.66,226.87c.25.15.37.22.62.36.92.54,2.46.77,3.42.5,1.37-.38,2.05-.57,3.4-.95.94-.26.95-.92.03-1.44-.25-.14-.37-.21-.62-.35-.92-.52-2.43-.74-3.37-.49-1.35.37-2.03.55-3.39.93-.95.26-.99.91-.08,1.45Z"/>
          <path class="cls-22" d="m198.4,229.43c.25.15.37.22.62.37.91.55,2.47.78,3.46.51,1.69-.47,2.52-.71,4.18-1.17.97-.27,1-.94.09-1.48-.25-.15-.37-.22-.62-.36-.91-.54-2.44-.76-3.41-.49-1.66.45-2.49.68-4.17,1.14-.98.27-1.05.94-.15,1.49Z"/>
          <path class="cls-22" d="m189.01,232.03c.24.15.36.23.61.38.9.57,2.49.8,3.51.52,1.67-.47,2.5-.7,4.14-1.16,1-.28,1.07-.96.16-1.52-.25-.15-.37-.23-.62-.38-.91-.55-2.45-.78-3.45-.51-1.64.45-2.46.68-4.12,1.13-1.01.28-1.12.97-.22,1.53Z"/>
          <path class="cls-22" d="m178.77,234.87c.24.16.36.24.6.39.89.58,2.5.82,3.55.53,1.95-.55,2.92-.82,4.83-1.36,1.04-.29,1.13-1,.23-1.57-.24-.15-.37-.23-.61-.38-.9-.57-2.46-.8-3.49-.52-1.91.52-2.87.79-4.82,1.32-1.05.29-1.19,1-.3,1.58Z"/>
          <path class="cls-22" d="m168.62,237.68c.24.16.36.24.6.41.88.6,2.51.85,3.6.54,1.83-.52,2.74-.77,4.55-1.28,1.07-.3,1.21-1.03.31-1.62-.24-.16-.36-.24-.6-.39-.89-.58-2.48-.82-3.54-.53-1.8.5-2.7.74-4.53,1.25-1.08.3-1.26,1.03-.38,1.63Z"/>
          <path class="cls-22" d="m158.08,240.62c.23.17.35.25.59.42.87.62,2.52.87,3.64.56,1.92-.54,2.87-.81,4.77-1.34,1.11-.31,1.28-1.07.39-1.67-.24-.16-.35-.24-.59-.41-.88-.6-2.48-.84-3.59-.54-1.88.52-2.83.78-4.75,1.31-1.12.31-1.33,1.07-.47,1.68Z"/>
          <path class="cls-22" d="m147.38,243.6c.23.17.35.26.58.43.86.64,2.53.9,3.69.57,1.9-.54,2.85-.81,4.73-1.34,1.14-.32,1.36-1.1.49-1.73-.24-.17-.35-.26-.59-.42-.87-.62-2.49-.87-3.63-.55-1.87.52-2.81.78-4.7,1.3-1.16.32-1.42,1.1-.56,1.74Z"/>
          <path class="cls-22" d="m135.68,246.87c.23.18.34.27.57.45.84.66,2.53.93,3.74.59,2.23-.63,3.33-.95,5.52-1.57,1.18-.33,1.44-1.14.58-1.79-.23-.17-.35-.26-.58-.43-.85-.64-2.5-.9-3.67-.57-2.18.6-3.27.91-5.49,1.52-1.19.33-1.5,1.14-.66,1.8Z"/>
          <path class="cls-22" d="m182.04,283.45c-1.86-1.48-2.78-2.21-4.59-3.65-1.07-.85-2.97-1.17-4.25-.72-3.44,1.21-5.19,1.83-8.73,3.07-1.32.46-1.55,1.55-.5,2.44,1.79,1.5,2.69,2.26,4.52,3.79,1.08.9,3.07,1.25,4.4.76,3.57-1.31,5.33-1.96,8.81-3.23,1.29-.47,1.44-1.58.34-2.45Z"/>
          <path class="cls-22" d="m134.32,247.87c-.23-.18-.34-.27-.57-.45-.84-.66-2.5-.93-3.72-.59-2.44.68-3.67,1.02-6.15,1.71-1.24.34-1.59,1.18-.77,1.87.22.19.33.28.55.46.83.69,2.54.97,3.78.61,2.5-.71,3.74-1.06,6.19-1.76,1.23-.35,1.53-1.18.68-1.85Z"/>
          <path class="cls-22" d="m265.03,211.09c.25.12.38.19.63.31.94.46,2.36.67,3.14.45,1.58-.44,2.37-.66,3.92-1.09.77-.21.62-.76-.33-1.22-.25-.12-.38-.19-.64-.31-.94-.45-2.32-.65-3.09-.44-1.56.42-2.34.64-3.92,1.07-.78.21-.65.76.29,1.22Z"/>
          <path class="cls-22" d="m322.24,233.7c-1.97-.96-2.95-1.44-4.89-2.38-1.14-.55-2.69-.79-3.46-.54-1.56.52-2.35.78-3.94,1.31-.78.26-.5.93.64,1.5,1.94.96,2.91,1.45,4.89,2.43,1.16.58,2.76.83,3.54.55,1.59-.55,2.37-.83,3.94-1.37.77-.27.44-.95-.72-1.51Z"/>
        </g>
        <g>
          <path class="cls-21" d="m331.51,270.97c1.04.58,1.36,1.29.69,1.59-20.85,9.27-41.68,18.58-62.51,27.88-.86.38-2.41.1-3.44-.63-12.43-8.69-24.87-17.37-37.35-25.98-.88-.61-.9-1.35-.06-1.66,20.65-7.6,41.31-15.16,62.01-22.63.67-.24,1.93-.04,2.83.46,12.63,6.95,25.24,13.94,37.83,20.96Z"/>
          <path class="cls-18" d="m228.84,272.77c20.65-7.6,41.31-15.16,62.01-22.63.67-.24,1.93-.04,2.83.46,12.63,6.95,25.24,13.94,37.83,20.96.47.26.78.55.93.81.29-.35-.06-.92-.93-1.41-12.59-7.03-25.2-14.01-37.83-20.96-.9-.49-2.16-.7-2.83-.46-20.7,7.46-41.36,15.03-62.01,22.63-.56.21-.73.6-.54,1.01.09-.17.26-.32.54-.42Z"/>
          <path class="cls-17" d="m293.87,278.44l28.68-11.88-.21-.52-65.39,27.08.11.27c.09.06.18.12.26.18l35.92-14.87,10.33,6.62c.2-.09.41-.18.61-.27l-10.31-6.61Z"/>
        </g>
      </g>
      <path class="cls-3" d="m237.32,140.76c0-2.03,1.61-3.71,3.66-3.77l16.26-.52c2.04-.07,3.77,1.5,3.89,3.54l.78,12.58,12.59-.41c2.04-.07,3.77,1.5,3.89,3.54l.78,12.58,12.59-.41c2.04-.07,3.77,1.5,3.89,3.55l1,16.24c.1,2.11-1.46,3.88-3.54,4-2.08.13-3.87-1.46-4-3.54l-.77-12.57-12.59.41c-2.04.07-3.77-1.5-3.89-3.55l-.78-12.58-12.59.41c-2.04.07-3.77-1.5-3.89-3.54l-.78-12.58-12.6.4c-2.09.07-3.83-1.57-3.9-3.66,0-.04,0-.08,0-.12Z"/>
      <path class="cls-7" d="m68.86,339.15h-7.83v-7.83c0-1.66-1.34-3-3-3s-3,1.34-3,3v7.83h-7.83c-1.66,0-3,1.34-3,3s1.34,3,3,3h7.83v7.83c0,1.66,1.34,3,3,3s3-1.34,3-3v-7.83h7.83c1.66,0,3-1.34,3-3s-1.34-3-3-3Z"/>
      <path class="cls-42" d="m326.04,96.07l-6.54-4.31,4.3-6.54c.91-1.38.53-3.24-.86-4.16-1.38-.91-3.24-.53-4.16.86l-4.3,6.54-6.54-4.31c-1.38-.91-3.24-.53-4.16.86-.91,1.38-.53,3.24.86,4.16l6.54,4.3-4.31,6.54c-.91,1.39-.53,3.25.86,4.16,1.38.91,3.24.53,4.16-.86l4.3-6.54,6.54,4.31c1.38.91,3.24.53,4.16-.86.91-1.38.53-3.24-.86-4.16Z"/>
      <path class="cls-11" d="m166.9,47.24c-.96,0-1.89-.39-2.57-1.11l-18.11-19.21c-.86-.91-1.17-2.22-.81-3.43.36-1.21,1.34-2.13,2.57-2.42l25.68-6.08c1.22-.3,2.51.1,3.38,1.01.87.91,1.17,2.22.81,3.43l-7.58,25.28c-.36,1.21-1.34,2.13-2.57,2.42-.27.06-.54.09-.81.09Zm-11.35-20.71l9.73,10.32,4.07-13.58-13.8,3.26Z"/>
      <g>
        <path class="cls-24" d="m292.41,17.63c-1.3-1.02-1.67-3.01-.82-4.43v-.02c.86-1.42.49-3.41-.81-4.43l-10.41-8.17c-1.3-1.02-3.05-.69-3.9.72l-14.33,23.99c-.85,1.42-.48,3.41.82,4.43l10.41,8.16c1.3,1.02,3.42,2.68,4.72,3.7l9.79,7.68c1.3,1.02,3.05.69,3.9-.72l11.24-18.82c.85-1.42.48-3.41-.82-4.43l-9.79-7.68Z"/>
        <path class="cls-33" d="m292.81,49.57c-1.41.85-3.63.72-4.93-.3l-24.92-19.54c-1.3-1.02-1.21-2.55.21-3.4l17.43-10.54c1.41-.85,3.63-.72,4.93.3l24.92,19.54c1.3,1.02,1.21,2.55-.21,3.4l-17.43,10.54Z"/>
      </g>
      <g>
        <path class="cls-41" d="m358.93,265.61c1.3-1.02,1.67-3.01.82-4.43v-.02c-.86-1.42-.49-3.41.81-4.43l10.41-8.17c1.3-1.02,3.05-.69,3.9.72l14.33,23.99c.85,1.42.48,3.41-.82,4.43l-10.41,8.17c-1.3,1.02-3.42,2.68-4.72,3.7l-9.79,7.68c-1.3,1.02-3.05.69-3.9-.72l-11.24-18.82c-.85-1.42-.48-3.41.82-4.43l9.79-7.68Z"/>
        <path class="cls-32" d="m358.53,297.56c1.41.85,3.63.72,4.93-.3l24.92-19.54c1.3-1.02,1.21-2.55-.21-3.4l-17.43-10.54c-1.41-.85-3.63-.72-4.93.3l-24.92,19.54c-1.3,1.02-1.21,2.55.21,3.4l17.43,10.54Z"/>
      </g>
      <g>
        <path class="cls-26" d="m143.72,310.4c.72,1.48,2.59,2.26,4.16,1.73h.02c1.56-.54,3.43.24,4.16,1.73l5.8,11.89c.72,1.48.04,3.13-1.53,3.66l-26.46,8.98c-1.56.53-3.43-.25-4.16-1.73l-5.8-11.89c-.72-1.48-1.91-3.91-2.63-5.39l-5.46-11.18c-.72-1.48-.04-3.13,1.53-3.66l20.76-7.04c1.56-.53,3.43.25,4.16,1.73l5.46,11.18Z"/>
        <path class="cls-48" d="m112.57,303.31c-1.13,1.2-1.46,3.4-.74,4.88l13.89,28.46c.72,1.48,2.24,1.71,3.37.51l13.96-14.84c1.13-1.2,1.46-3.4.74-4.88l-13.89-28.46c-.72-1.48-2.24-1.71-3.37-.51l-13.96,14.84Z"/>
      </g>
      <g>
        <path class="cls-25" d="m418.28,92.01c.59,1.55-.18,3.28-1.72,3.88l-38.73,14.91c-1.55.59-3.28-.18-3.88-1.72l-19.85-51.56c-.59-1.55.18-3.28,1.72-3.88l28.99-11.16,17.44,7.88,16.03,41.65Z"/>
        <path class="cls-29" d="m417.57,90.14c.59,1.55-.18,3.28-1.72,3.88l-38.73,14.91c-1.55.6-3.28-.18-3.88-1.72l-19.85-51.56c-.59-1.55.18-3.28,1.72-3.88l28.99-11.16,17.44,7.88,16.03,41.65Z"/>
        <path class="cls-25" d="m384.1,40.61l3.82,9.91c.59,1.54,2.33,2.32,3.88,1.72l9.75-3.75-17.44-7.88Z"/>
        <path class="cls-34" d="m392.1,57.22c.25.64-.07,1.37-.72,1.62l-19.71,7.59c-.64.25-1.37-.07-1.62-.72h0c-.25-.64.07-1.37.72-1.62l19.72-7.59c.64-.25,1.37.07,1.62.72h0Z"/>
        <path class="cls-34" d="m399.47,62.28c.25.64-.07,1.37-.72,1.62l-29.16,11.22c-.64.25-1.37-.07-1.62-.72h0c-.25-.64.07-1.37.72-1.62l29.16-11.22c.64-.25,1.37.07,1.62.72h0Z"/>
        <path class="cls-34" d="m402.12,69.16c.25.64-.07,1.37-.72,1.62l-29.16,11.22c-.64.25-1.37-.07-1.62-.72h0c-.25-.64.07-1.37.72-1.62l29.16-11.22c.64-.25,1.37.07,1.62.72h0Z"/>
        <path class="cls-34" d="m404.77,76.05c.25.64-.07,1.37-.72,1.62l-29.16,11.22c-.64.25-1.37-.07-1.62-.72h0c-.25-.64.07-1.37.72-1.62l29.16-11.22c.64-.25,1.37.07,1.62.72h0Z"/>
        <path class="cls-34" d="m407.42,82.93c.25.64-.07,1.37-.72,1.62l-29.16,11.22c-.64.25-1.37-.07-1.62-.72h0c-.25-.64.07-1.37.72-1.62l29.16-11.22c.64-.25,1.37.07,1.62.72h0Z"/>
      </g>
      <g>
        <path class="cls-25" d="m56.77,227.69c-1.48.75-3.28.16-4.03-1.32l-18.78-37.01c-.75-1.48-.16-3.28,1.32-4.03l49.27-25c1.48-.75,3.28-.16,4.03,1.32l14.05,27.7-6.06,18.15-39.8,20.19Z"/>
        <path class="cls-29" d="m58.55,226.79c-1.48.75-3.28.16-4.03-1.32l-18.78-37.01c-.75-1.48-.16-3.28,1.32-4.03l49.27-25c1.48-.75,3.28-.16,4.03,1.32l14.05,27.7-6.06,18.15-39.8,20.19Z"/>
        <path class="cls-25" d="m104.42,188.44l-9.47,4.81c-1.48.75-2.07,2.56-1.32,4.03l4.72,9.31,6.07-18.15Z"/>
        <path class="cls-34" d="m88.71,198.1c-.62.31-1.37.07-1.68-.55l-9.56-18.84c-.31-.62-.07-1.37.55-1.68h0c.62-.31,1.37-.07,1.68.55l9.56,18.84c.31.61.07,1.37-.55,1.68h0Z"/>
        <path class="cls-34" d="m84.43,205.95c-.62.31-1.37.07-1.68-.55l-14.14-27.87c-.31-.62-.07-1.37.55-1.68h0c.62-.31,1.37-.07,1.68.55l14.14,27.87c.31.62.07,1.37-.55,1.68h0Z"/>
        <path class="cls-34" d="m77.85,209.29c-.62.31-1.37.07-1.68-.55l-14.14-27.87c-.31-.61-.07-1.37.55-1.68h0c.62-.31,1.37-.07,1.68.55l14.14,27.87c.31.62.07,1.37-.55,1.68h0Z"/>
        <path class="cls-34" d="m71.27,212.62c-.62.31-1.37.07-1.68-.55l-14.14-27.87c-.31-.62-.07-1.37.55-1.68h0c.62-.31,1.37-.07,1.68.55l14.14,27.87c.31.62.07,1.37-.55,1.68h0Z"/>
        <path class="cls-34" d="m64.69,215.96c-.62.31-1.37.07-1.68-.55l-14.14-27.87c-.31-.62-.07-1.37.55-1.68h0c.62-.31,1.37-.07,1.68.55l14.14,27.87c.31.62.07,1.37-.55,1.68h0Z"/>
      </g>
      <g>
        <path class="cls-31" d="m229.97,180.12l-26.79-21.38c-1.58-1.27-2.99-1.62-3.98-1.16-.99.46-1.57,1.72-1.49,3.67l1.35,33.05c.12,3.08,1.55,4.41,3.41,3.55.5-.23,1.03-.62,1.58-1.17l5.41-5.43c.5-.51,1.12-.99,1.79-1.47l6.3,12.19c1.14,2.21,3.73,3.23,5.78,2.29,2.05-.94,2.78-3.49,1.64-5.69l-6.3-12.19c.81-.21,1.6-.37,2.33-.42l7.88-.66c.8-.07,1.45-.22,1.95-.45,1.86-.86,1.63-2.73-.86-4.72Z"/>
        <path class="cls-39" d="m238.52,173.65s-.06.06-.1.09c-.13.1-.29.19-.48.28-.47.2-1.09.34-1.88.39l-7.78.58c-.72.05-1.49.19-2.27.37l-3.37,5.74c.78-.18,1.55-.32,2.27-.37l7.78-.58c.79-.06,1.42-.19,1.88-.39.19-.08.34-.17.47-.28.04-.03.07-.06.1-.09.04-.04.1-.07.13-.11.06-.06.11-.13.15-.2l3.37-5.74c-.07.11-.17.22-.28.31Z"/>
        <path class="cls-8" d="m236.38,169.89l-29.95-18.66c-1.77-1.11-3.23-1.41-4.15-1.02-.34.14-.6.38-.78.71,0,0,0-.02.01-.03l-3.37,5.74c-.34.57-.41,1.42-.17,2.53l6.25,28.85c.08.35.17.67.28.97.04.1.09.19.13.29.08.18.16.37.25.52.06.1.12.18.18.27.09.13.18.26.27.37.07.08.14.14.22.21.1.09.2.18.31.26.03.02.06.05.09.07.06.04.13.06.2.1.08.04.15.08.23.11.11.04.22.06.34.09.08.01.15.04.23.04.13.01.26,0,.39-.01.07,0,.14,0,.2-.01.2-.04.41-.09.62-.18.47-.2.94-.54,1.41-1.02l4.61-4.74c.42-.44.97-.87,1.58-1.28l8.11,10.64c.2.26.42.5.66.72.08.07.17.14.26.21.17.14.34.27.52.39.03.02.06.05.1.07.17.11.35.21.54.3,0,0,0,0,.01,0,.24.12.49.21.73.3.06.02.13.04.19.06.2.06.41.11.61.15.05,0,.11.02.16.03.25.04.5.06.74.06.05,0,.1,0,.15,0,.2,0,.39-.02.58-.05.07-.01.13-.02.19-.03.23-.05.46-.11.67-.2.19-.08.35-.18.51-.29.04-.03.08-.06.12-.09.12-.09.23-.19.33-.29.02-.02.05-.04.06-.06,0-.01.02-.02.02-.03.11-.12.2-.25.29-.39l3.37-5.74c-.04.07-.09.12-.13.18.76-1.06.67-2.61-.4-4.01l-8.11-10.64c.78-.18,1.55-.32,2.27-.37l7.78-.58c.79-.06,1.42-.19,1.88-.39,1.74-.75,1.23-2.38-1.56-4.12Z"/>
        <path class="cls-37" d="m238.52,173.65s-.06.06-.1.09c-.13.1-.29.19-.48.28-.47.2-1.09.34-1.88.39l-7.78.58c-.68.05-1.4.18-2.14.34l-.37.64c.78-.18,1.55-.32,2.27-.37l7.78-.58c.79-.06,1.42-.19,1.88-.39.19-.08.34-.17.47-.28.03-.02.05-.04.07-.06l.56-.95c-.07.11-.17.22-.28.31Z"/>
        <path class="cls-37" d="m235.81,169.53l-29.38-18.31c-1.77-1.11-3.23-1.41-4.15-1.02-.15.07-.29.16-.41.26l-.61,1.03c-.34.57-.41,1.42-.17,2.53l6.25,28.85c.08.35.17.67.28.97.04.1.09.19.13.29.08.18.16.37.25.52.06.1.12.18.18.27.09.13.18.26.27.37.07.08.14.14.22.21.1.09.2.18.31.26.03.02.06.05.09.07.06.04.13.06.2.1.08.04.15.08.23.11.11.04.22.06.34.09.08.01.15.04.23.04.13.01.26,0,.39-.01.07,0,.14,0,.2-.01.2-.04.41-.09.62-.18.47-.2.94-.54,1.41-1.02l4.61-4.74c.42-.44.97-.87,1.58-1.28l8.11,10.64c.2.26.42.5.66.72.08.07.17.14.26.21.17.14.34.27.52.39.03.02.06.05.1.07.17.11.35.21.54.3,0,0,0,0,.01,0,.24.12.49.21.73.3.06.02.13.04.19.06.2.06.41.11.61.15.05,0,.11.02.16.03.25.04.5.06.74.06.05,0,.1,0,.15,0,.2,0,.39-.02.58-.05.07-.01.13-.02.19-.03.23-.05.46-.11.67-.2.19-.08.35-.18.51-.29.04-.03.08-.06.12-.09.1-.08.19-.16.28-.25l.66-1.13c-.04.07-.09.12-.13.18.76-1.06.67-2.61-.4-4.01l-8.11-10.64c.78-.18,1.55-.32,2.27-.37l4.24-.32-3.38-4.44c.78-.18,1.55-.32,2.27-.37l4.4-.33Z"/>
        <path class="cls-40" d="m236.38,169.89l-29.95-18.66c-1.77-1.11-3.23-1.41-4.15-1.02-.92.4-1.31,1.5-.94,3.21l6.25,28.85c.58,2.69,2.2,3.85,3.93,3.1.46-.2.94-.54,1.4-1.02l4.61-4.74c.42-.44.97-.87,1.57-1.28l8.11,10.64c1.47,1.93,4.21,2.82,6.11,2,1.91-.82,2.26-3.04.8-4.97l-8.11-10.64c.78-.18,1.55-.32,2.27-.37l7.78-.58c.79-.06,1.42-.19,1.88-.39,1.74-.75,1.23-2.38-1.56-4.12Z"/>
      </g>
    </g>
  </g>
</svg>