<svg width="451" height="136" viewBox="0 0 451 136" fill="none" xmlns="http://www.w3.org/2000/svg">
<g clip-path="url(#clip0_1212_2)">
<path d="M51.5398 46.7803H76.9398L105.97 75.5703L45.7798 135.03V109.97L80.6598 75.5203L51.5398 46.7803Z" fill="#E81C21"/>
<path d="M80.6598 75.5195L45.7798 109.97V135.03L105.97 75.5695L80.6598 75.5195Z" fill="#C60E1C"/>
<path d="M150.83 88.25H125.44L96.4102 59.46L156.6 0V25.05L121.72 59.51L150.83 88.25Z" fill="#E81C21"/>
<path d="M121.72 59.51L156.6 25.05V0L96.4102 59.46L121.72 59.51Z" fill="#C60E1C"/>
<path d="M16.71 39.2898V50.7398H43.44V62.3498H16.71V74.5498H45.78V88.2498H0V25.5898H45.2V39.2898H16.71Z" fill="#1A1C30"/>
<path d="M177.35 88.2498H160.64V25.5898H192.13C199.87 25.5898 205.37 27.3598 208.63 30.8998C211.89 34.4398 213.52 40.3298 213.52 48.5698C213.52 57.5898 212.13 63.7498 209.34 67.0298C206.39 70.4898 200.65 72.2098 192.13 72.2098H177.34V88.2498H177.35ZM177.35 57.6698H188.79C192.13 57.6698 194.22 57.1598 195.06 56.1298C195.9 55.0998 196.31 52.5798 196.31 48.5698C196.31 45.2298 195.85 42.9898 194.93 41.8498C194.01 40.7098 191.97 40.1398 188.79 40.1398H177.35V57.6798V57.6698Z" fill="#1A1C30"/>
<path d="M219.96 88.2498V25.5898H252.16C259.83 25.5898 265.23 26.7898 268.34 29.1798C271.9 31.9698 273.68 37.0898 273.68 44.5498C273.68 50.7898 273.18 54.9698 272.19 57.0798C270.7 60.3098 267.27 62.5598 261.9 63.8498V64.5198C265.41 64.6298 268.17 65.6498 270.17 67.5698C272.17 69.4898 273.18 72.1798 273.18 75.6298V88.2398H256.47V79.4698C256.47 74.2398 254.18 71.6198 249.62 71.6198H236.67V88.2398H219.96V88.2498ZM236.67 57.0898H249.56C252.83 57.0898 254.88 56.3398 255.72 54.8298C256.22 53.8798 256.47 51.3798 256.47 47.3098C256.47 44.4698 256 42.5598 255.06 41.5898C254.12 40.6198 252.29 40.1298 249.57 40.1298H236.68V57.0898H236.67Z" fill="#1A1C30"/>
<path d="M299.32 39.2898V50.7398H326.05V62.3498H299.32V74.5498H328.39V88.2498H282.61V25.5898H327.81V39.2898H299.32Z" fill="#1A1C30"/>
<path d="M360.55 49.6501L367.48 50.1501C377 50.8201 383.19 52.2101 386.02 54.3301C389.08 56.5601 390.61 61.1801 390.61 68.2001C390.61 72.8801 390.3 76.1901 389.69 78.1401C388.63 81.5401 386.33 84.0701 382.77 85.7401C378.49 87.7501 372.06 88.7501 363.5 88.7501C353.88 88.7501 347.46 87.8301 344.23 85.9901C339.39 83.2101 336.97 77.1601 336.97 67.8601H353.01C353.01 70.9801 353.73 72.9801 355.17 73.8801C356.45 74.6601 359.22 75.0501 363.49 75.0501C367.76 75.0501 370.37 74.7501 371.64 74.1301C373.14 73.4101 373.89 71.7901 373.89 69.2801C373.89 66.7701 373.46 65.1001 372.6 64.6001C371.73 64.1001 369.24 63.7101 365.12 63.4301L361.44 63.1801C354.76 62.7301 350.36 62.2601 348.24 61.7601C344.34 60.9301 341.56 59.3101 339.89 56.9101C337.94 54.1201 336.97 49.8901 336.97 44.2101C336.97 35.9701 339.34 30.5401 344.07 27.9201C347.47 26.0301 353.93 25.0801 363.45 25.0801C372.14 25.0801 378.1 25.8301 381.33 27.3401C386.34 29.7901 388.85 34.8901 388.85 42.6301V45.2201H372.81C372.81 42.2701 372.09 40.4001 370.64 39.6201C369.64 39.0601 367.24 38.7801 363.46 38.7801C359.28 38.7801 356.53 39.2301 355.19 40.1201C354.19 40.8401 353.69 42.1801 353.69 44.1301C353.69 46.4101 354.28 47.9201 355.44 48.6401C356.22 49.1401 357.92 49.4801 360.54 49.6401L360.55 49.6501Z" fill="#1A1C30"/>
<path d="M420.37 49.6501L427.3 50.1501C436.82 50.8201 443.01 52.2101 445.84 54.3301C448.9 56.5601 450.43 61.1801 450.43 68.2001C450.43 72.8801 450.12 76.1901 449.51 78.1401C448.45 81.5401 446.15 84.0701 442.59 85.7401C438.31 87.7501 431.89 88.7501 423.32 88.7501C413.7 88.7501 407.28 87.8301 404.05 85.9901C399.21 83.2101 396.79 77.1601 396.79 67.8601H412.83C412.83 70.9801 413.55 72.9801 414.99 73.8801C416.27 74.6601 419.04 75.0501 423.31 75.0501C427.58 75.0501 430.19 74.7501 431.46 74.1301C432.96 73.4101 433.71 71.7901 433.71 69.2801C433.71 66.7701 433.28 65.1001 432.42 64.6001C431.55 64.1001 429.06 63.7101 424.94 63.4301L421.26 63.1801C414.58 62.7301 410.18 62.2601 408.06 61.7601C404.16 60.9301 401.38 59.3101 399.71 56.9101C397.76 54.1201 396.79 49.8901 396.79 44.2101C396.79 35.9701 399.16 30.5401 403.89 27.9201C407.29 26.0301 413.75 25.0801 423.27 25.0801C431.96 25.0801 437.92 25.8301 441.15 27.3401C446.16 29.7901 448.67 34.8901 448.67 42.6301V45.2201H432.63C432.63 42.2701 431.91 40.4001 430.46 39.6201C429.46 39.0601 427.06 38.7801 423.28 38.7801C419.1 38.7801 416.35 39.2301 415.01 40.1201C414.01 40.8401 413.51 42.1801 413.51 44.1301C413.51 46.4101 414.1 47.9201 415.26 48.6401C416.04 49.1401 417.74 49.4801 420.36 49.6401L420.37 49.6501Z" fill="#1A1C30"/>
</g>
<defs>
<clipPath id="clip0_1212_2">
<rect width="450.44" height="135.03" fill="white"/>
</clipPath>
</defs>
</svg>
